<?xml version="1.0" encoding="utf-8"?>
<!-- Generator: Adobe Illustrator 16.0.0, SVG Export Plug-In . SVG Version: 6.00 Build 0)  -->
<!DOCTYPE svg PUBLIC "-//W3C//DTD SVG 1.1//EN" "http://www.w3.org/Graphics/SVG/1.1/DTD/svg11.dtd">
<svg version="1.1" id="Layer_1" xmlns="http://www.w3.org/2000/svg" xmlns:xlink="http://www.w3.org/1999/xlink" x="0px" y="0px"
	 width="888.065px" height="297.354px" viewBox="0 0 888.065 297.354" enable-background="new 0 0 888.065 297.354"
	 xml:space="preserve">
<g>
	<g>
		<polygon fill="#4D4E4E" points="102.659,65.849 38.715,102.769 38.715,276.536 52.196,276.536 52.196,110.551 89.178,89.2 
			89.178,121.688 102.659,121.688 		"/>
		<polygon fill="#4D4E4E" points="68.203,111.956 68.203,254.524 81.685,254.524 81.685,125.436 135.194,125.436 135.194,206.015 
			148.673,206.015 148.673,111.956 		"/>
		<polygon fill="#4D4E4E" points="117.12,-0.87 117.12,119.073 130.599,119.073 130.599,34.979 172.154,82.421 172.154,180.603 
			185.634,180.603 185.634,77.353 		"/>
		<rect x="110.792" y="141.619" fill="#4D4E4E" width="27.442" height="13.479"/>
		<rect x="110.792" y="164.95" fill="#4D4E4E" width="27.442" height="13.479"/>
		<path fill="#EF5624" d="M166.097,234.331v12.941h12.939v-12.941H166.097z M184.11,234.331v12.941h12.94v-12.941H184.11z
			 M166.097,250.823v12.941h12.939v-12.941H166.097z M184.11,250.823v12.941h12.94v-12.941H184.11z"/>
		<polygon fill="#EF5624" points="228.139,137.405 5.1,298.224 115.139,298.224 115.139,284.745 46.844,284.745 214.657,163.743 
			214.657,195.849 228.139,195.849 		"/>
	</g>
	<g>
		<path fill="#222222" d="M293.246,65.324h28.727l35.582,70.186l35.258-70.186h28.564v114.257h-23.178v-77.205l-32.482,65.615
			h-16.648l-32.645-65.615v77.205h-23.178V65.324z"/>
		<path fill="#222222" d="M510.412,96.499c7.126,3.701,12.65,8.924,16.567,15.67c3.918,6.748,5.876,14.583,5.876,23.504
			c0,8.814-1.958,16.624-5.876,23.423c-3.917,6.802-9.441,12.079-16.567,15.833c-7.128,3.754-15.317,5.631-24.564,5.631
			c-9.36,0-17.603-1.877-24.729-5.631c-7.129-3.754-12.65-9.031-16.567-15.833c-3.917-6.799-5.876-14.608-5.876-23.423
			c0-8.921,1.959-16.756,5.876-23.504c3.917-6.746,9.438-11.969,16.567-15.67c7.126-3.697,15.368-5.549,24.729-5.549
			C495.095,90.95,503.284,92.802,510.412,96.499z M469.933,118.535c-4.08,4.463-6.12,10.282-6.12,17.465
			c0,7.182,2.04,13.004,6.12,17.465c4.081,4.463,9.386,6.691,15.915,6.691c6.419,0,11.67-2.229,15.751-6.691
			c4.08-4.461,6.121-10.283,6.121-17.465c0-7.183-2.041-13.002-6.121-17.465c-4.081-4.461-9.332-6.692-15.751-6.692
			C479.318,111.843,474.014,114.074,469.933,118.535z"/>
		<path fill="#222222" d="M628.422,99.927c5.82,6.096,8.732,14.257,8.732,24.484v55.17h-25.137v-47.825
			c0-5.55-1.55-9.929-4.651-13.14c-3.102-3.208-7.319-4.815-12.65-4.815c-6.202,0.11-11.099,2.26-14.689,6.448
			c-3.591,4.189-5.387,9.548-5.387,16.077v43.255h-25.137V91.766h25.137v15.344c6.093-10.663,16.213-16.104,30.359-16.322
			C614.793,90.787,622.6,93.834,628.422,99.927z"/>
		<path fill="#222222" d="M713.217,174.685c-3.264,1.957-6.883,3.455-10.854,4.488c-3.974,1.033-7.973,1.551-11.997,1.551
			c-8.161,0-14.8-2.34-19.914-7.02c-5.115-4.678-7.671-11.369-7.671-20.076v-40.643h-12.242V95.684h12.242V71.526h24.973v24.157
			h23.831v17.465h-23.831v36.235c0,6.748,2.665,10.12,7.998,10.12c3.698,0,7.779-1.087,12.242-3.265L713.217,174.685z"/>
		<path fill="#222222" d="M765.447,95.193c4.897-2.828,10.61-4.297,17.139-4.406v23.667c-0.872-0.107-2.178-0.163-3.917-0.163
			c-7.728,0-13.849,2.097-18.363,6.284c-4.517,4.19-6.773,9.768-6.773,16.73v42.275h-25.137V91.766h25.137v15.833
			C756.577,102.159,760.551,98.024,765.447,95.193z"/>
		<path fill="#222222" d="M860.522,96.499c7.126,3.701,12.65,8.924,16.567,15.67c3.918,6.748,5.876,14.583,5.876,23.504
			c0,8.814-1.958,16.624-5.876,23.423c-3.917,6.802-9.441,12.079-16.567,15.833c-7.128,3.754-15.317,5.631-24.564,5.631
			c-9.36,0-17.603-1.877-24.729-5.631c-7.129-3.754-12.65-9.031-16.567-15.833c-3.917-6.799-5.876-14.608-5.876-23.423
			c0-8.921,1.959-16.756,5.876-23.504c3.917-6.746,9.438-11.969,16.567-15.67c7.126-3.697,15.368-5.549,24.729-5.549
			C845.205,90.95,853.395,92.802,860.522,96.499z M820.043,118.535c-4.08,4.463-6.12,10.282-6.12,17.465
			c0,7.182,2.04,13.004,6.12,17.465c4.081,4.463,9.386,6.691,15.915,6.691c6.419,0,11.67-2.229,15.751-6.691
			c4.08-4.461,6.121-10.283,6.121-17.465c0-7.183-2.041-13.002-6.121-17.465c-4.081-4.461-9.332-6.692-15.751-6.692
			C829.429,111.843,824.124,114.074,820.043,118.535z"/>
	</g>
	<g>
		<path fill="#4D4E4E" d="M335.556,273.329c-0.438,6.057-2.675,10.826-6.707,14.305c-4.034,3.479-9.35,5.219-15.947,5.219
			c-7.217,0-12.894-2.428-17.029-7.287c-4.137-4.857-6.205-11.527-6.205-20.006v-3.441c0-5.412,0.953-10.18,2.86-14.305
			c1.907-4.123,4.633-7.287,8.177-9.49c3.543-2.203,7.66-3.305,12.352-3.305c6.495,0,11.727,1.738,15.696,5.219
			c3.968,3.479,6.262,8.363,6.881,14.652h-11.598c-0.284-3.635-1.295-6.27-3.035-7.906c-1.739-1.637-4.388-2.455-7.944-2.455
			c-3.866,0-6.759,1.385-8.679,4.156c-1.921,2.77-2.906,7.068-2.958,12.893v4.252c0,6.084,0.922,10.529,2.765,13.338
			c1.842,2.811,4.748,4.215,8.718,4.215c3.582,0,6.256-0.818,8.021-2.455s2.777-4.17,3.035-7.598H335.556z"/>
		<path fill="#4D4E4E" d="M340.697,270.778c0-4.148,0.798-7.848,2.396-11.096c1.598-3.248,3.898-5.76,6.901-7.539
			c3.002-1.777,6.487-2.666,10.457-2.666c5.645,0,10.251,1.727,13.82,5.18s5.561,8.145,5.974,14.072l0.077,2.861
			c0,6.416-1.792,11.564-5.374,15.443s-8.389,5.818-14.42,5.818s-10.844-1.934-14.439-5.799c-3.595-3.865-5.393-9.123-5.393-15.773
			V270.778z M351.87,271.571c0,3.975,0.747,7.016,2.242,9.119c1.494,2.104,3.634,3.154,6.417,3.154c2.706,0,4.819-1.039,6.34-3.117
			s2.281-5.4,2.281-9.969c0-3.898-0.761-6.918-2.281-9.061s-3.659-3.213-6.417-3.213c-2.732,0-4.846,1.064-6.34,3.193
			C352.617,263.808,351.87,267.106,351.87,271.571z"/>
		<path fill="#4D4E4E" d="M397.487,250.249l0.349,4.834c2.989-3.736,6.997-5.605,12.022-5.605c4.433,0,7.732,1.301,9.897,3.904
			s3.272,6.494,3.324,11.674v27.023h-11.172v-26.752c0-2.371-0.517-4.092-1.547-5.16c-1.031-1.07-2.745-1.605-5.142-1.605
			c-3.145,0-5.503,1.34-7.075,4.021v29.496h-11.172v-41.83H397.487z"/>
		<path fill="#4D4E4E" d="M454.201,280.521c0-1.365-0.676-2.441-2.029-3.229c-1.353-0.785-3.524-1.488-6.514-2.107
			c-9.949-2.086-14.923-6.313-14.923-12.68c0-3.711,1.54-6.811,4.62-9.297c3.079-2.488,7.106-3.73,12.081-3.73
			c5.309,0,9.555,1.25,12.738,3.75c3.183,2.5,4.774,5.746,4.774,9.742h-11.173c0-1.598-0.516-2.92-1.547-3.963
			c-1.03-1.045-2.642-1.566-4.832-1.566c-1.882,0-3.338,0.426-4.368,1.275c-1.031,0.852-1.547,1.934-1.547,3.248
			c0,1.236,0.586,2.236,1.759,2.996s3.151,1.418,5.935,1.971c2.783,0.555,5.129,1.18,7.036,1.875
			c5.901,2.166,8.853,5.916,8.853,11.25c0,3.814-1.637,6.902-4.909,9.26c-3.273,2.357-7.5,3.537-12.681,3.537
			c-3.505,0-6.617-0.625-9.336-1.875c-2.72-1.25-4.852-2.963-6.398-5.141c-1.546-2.178-2.319-4.529-2.319-7.057h10.593
			c0.103,1.986,0.837,3.506,2.203,4.563s3.195,1.584,5.49,1.584c2.139,0,3.756-0.404,4.852-1.217
			C453.653,282.897,454.201,281.835,454.201,280.521z"/>
		<path fill="#4D4E4E" d="M485.631,239.966v10.283h7.152v8.197h-7.152v20.875c0,1.547,0.297,2.656,0.89,3.326
			s1.727,1.004,3.402,1.004c1.236,0,2.332-0.09,3.286-0.27v8.465c-2.191,0.67-4.446,1.006-6.766,1.006
			c-7.835,0-11.83-3.955-11.984-11.869v-22.537h-6.108v-8.197h6.108v-10.283H485.631z"/>
		<path fill="#4D4E4E" d="M522.513,260.728c-1.521-0.207-2.86-0.311-4.021-0.311c-4.227,0-6.997,1.432-8.312,4.291v27.371h-11.173
			v-41.83h10.555l0.309,4.988c2.242-3.84,5.348-5.76,9.317-5.76c1.237,0,2.396,0.168,3.479,0.502L522.513,260.728z"/>
		<path fill="#4D4E4E" d="M552.938,287.827c-2.758,3.352-6.572,5.025-11.443,5.025c-4.484,0-7.906-1.289-10.264-3.865
			c-2.358-2.578-3.563-6.354-3.615-11.328v-27.41h11.173v27.055c0,4.361,1.984,6.541,5.953,6.541c3.789,0,6.392-1.314,7.81-3.947
			v-29.648h11.211v41.83h-10.515L552.938,287.827z"/>
		<path fill="#4D4E4E" d="M589.588,283.845c2.062,0,3.736-0.566,5.025-1.701c1.288-1.133,1.958-2.641,2.01-4.523h10.478
			c-0.026,2.836-0.8,5.432-2.32,7.791c-1.521,2.357-3.602,4.188-6.243,5.49c-2.643,1.301-5.561,1.951-8.757,1.951
			c-5.979,0-10.695-1.9-14.149-5.701c-3.453-3.803-5.18-9.053-5.18-15.754v-0.734c0-6.443,1.714-11.586,5.142-15.426
			s8.131-5.76,14.11-5.76c5.232,0,9.427,1.488,12.584,4.465s4.761,6.939,4.813,11.887h-10.478c-0.052-2.176-0.722-3.943-2.01-5.305
			c-1.289-1.359-2.99-2.039-5.104-2.039c-2.604,0-4.568,0.947-5.896,2.846c-1.327,1.896-1.99,4.975-1.99,9.232v1.162
			c0,4.311,0.657,7.408,1.971,9.293C584.909,282.903,586.906,283.845,589.588,283.845z"/>
		<path fill="#4D4E4E" d="M626.854,239.966v10.283h7.152v8.197h-7.152v20.875c0,1.547,0.297,2.656,0.89,3.326
			s1.727,1.004,3.402,1.004c1.236,0,2.332-0.09,3.286-0.27v8.465c-2.191,0.67-4.446,1.006-6.766,1.006
			c-7.835,0-11.83-3.955-11.984-11.869v-22.537h-6.108v-8.197h6.108v-10.283H626.854z"/>
		<path fill="#4D4E4E" d="M640.154,239.425c0-1.674,0.561-3.053,1.682-4.137c1.121-1.082,2.648-1.623,4.581-1.623
			c1.907,0,3.428,0.541,4.562,1.623c1.135,1.084,1.701,2.463,1.701,4.137c0,1.701-0.573,3.094-1.72,4.176
			c-1.147,1.082-2.662,1.623-4.543,1.623c-1.882,0-3.396-0.541-4.542-1.623C640.728,242.519,640.154,241.126,640.154,239.425z
			 M652.022,292.079h-11.211v-41.83h11.211V292.079z"/>
		<path fill="#4D4E4E" d="M659.484,270.778c0-4.148,0.798-7.848,2.396-11.096c1.598-3.248,3.898-5.76,6.901-7.539
			c3.002-1.777,6.487-2.666,10.457-2.666c5.645,0,10.251,1.727,13.82,5.18s5.561,8.145,5.974,14.072l0.077,2.861
			c0,6.416-1.792,11.564-5.374,15.443s-8.389,5.818-14.42,5.818s-10.844-1.934-14.439-5.799c-3.595-3.865-5.393-9.123-5.393-15.773
			V270.778z M670.657,271.571c0,3.975,0.747,7.016,2.242,9.119c1.494,2.104,3.634,3.154,6.417,3.154c2.706,0,4.819-1.039,6.34-3.117
			s2.281-5.4,2.281-9.969c0-3.898-0.761-6.918-2.281-9.061s-3.659-3.213-6.417-3.213c-2.732,0-4.846,1.064-6.34,3.193
			C671.404,263.808,670.657,267.106,670.657,271.571z"/>
		<path fill="#4D4E4E" d="M716.274,250.249l0.349,4.834c2.989-3.736,6.997-5.605,12.022-5.605c4.433,0,7.732,1.301,9.897,3.904
			s3.272,6.494,3.324,11.674v27.023h-11.172v-26.752c0-2.371-0.517-4.092-1.547-5.16c-1.031-1.07-2.745-1.605-5.142-1.605
			c-3.145,0-5.503,1.34-7.075,4.021v29.496H705.76v-41.83H716.274z"/>
		<path fill="#4D4E4E" d="M814.973,273.329c-0.438,6.057-2.675,10.826-6.708,14.305s-9.35,5.219-15.946,5.219
			c-7.217,0-12.894-2.428-17.03-7.287c-4.137-4.857-6.204-11.527-6.204-20.006v-3.441c0-5.412,0.953-10.18,2.86-14.305
			c1.907-4.123,4.633-7.287,8.177-9.49c3.543-2.203,7.66-3.305,12.352-3.305c6.495,0,11.727,1.738,15.695,5.219
			c3.969,3.479,6.263,8.363,6.882,14.652h-11.598c-0.284-3.635-1.295-6.27-3.035-7.906c-1.739-1.637-4.388-2.455-7.944-2.455
			c-3.866,0-6.76,1.385-8.679,4.156c-1.921,2.77-2.906,7.068-2.958,12.893v4.252c0,6.084,0.921,10.529,2.765,13.338
			c1.842,2.811,4.748,4.215,8.718,4.215c3.582,0,6.256-0.818,8.021-2.455c1.765-1.637,2.776-4.17,3.035-7.598H814.973z"/>
		<path fill="#4D4E4E" d="M820.114,270.778c0-4.148,0.798-7.848,2.396-11.096c1.598-3.248,3.898-5.76,6.901-7.539
			c3.002-1.777,6.487-2.666,10.457-2.666c5.645,0,10.251,1.727,13.82,5.18s5.561,8.145,5.974,14.072l0.077,2.861
			c0,6.416-1.792,11.564-5.374,15.443s-8.389,5.818-14.42,5.818s-10.844-1.934-14.439-5.799c-3.595-3.865-5.393-9.123-5.393-15.773
			V270.778z M831.287,271.571c0,3.975,0.747,7.016,2.242,9.119c1.494,2.104,3.634,3.154,6.417,3.154c2.706,0,4.819-1.039,6.34-3.117
			s2.281-5.4,2.281-9.969c0-3.898-0.761-6.918-2.281-9.061s-3.659-3.213-6.417-3.213c-2.732,0-4.846,1.064-6.34,3.193
			C832.034,263.808,831.287,267.106,831.287,271.571z"/>
		<path fill="#4D4E4E" d="M867.201,286.591c0-1.779,0.6-3.223,1.798-4.33c1.198-1.109,2.699-1.662,4.504-1.662
			c1.829,0,3.344,0.553,4.542,1.662c1.198,1.107,1.798,2.551,1.798,4.33c0,1.752-0.593,3.176-1.778,4.271s-2.706,1.643-4.562,1.643
			c-1.83,0-3.338-0.547-4.523-1.643S867.201,288.343,867.201,286.591z"/>
	</g>
</g>
</svg>
