<?xml version="1.0" encoding="utf-8"?>
<!-- Generator: Adobe Illustrator 16.0.0, SVG Export Plug-In . SVG Version: 6.00 Build 0)  -->
<!DOCTYPE svg PUBLIC "-//W3C//DTD SVG 1.1//EN" "http://www.w3.org/Graphics/SVG/1.1/DTD/svg11.dtd">
<svg version="1.1" id="Layer_1" xmlns="http://www.w3.org/2000/svg" xmlns:xlink="http://www.w3.org/1999/xlink" x="0px" y="0px"
	 width="594.819px" height="243.124px" viewBox="0 0 594.819 243.124" enable-background="new 0 0 594.819 243.124"
	 xml:space="preserve">
<g>
	<g>
		<path fill="#222222" d="M3.579,11.434h28.727L67.888,81.62l35.258-70.186h28.565V125.69h-23.178V48.486L76.05,114.102H59.402
			L26.757,48.486v77.205H3.579V11.434z"/>
		<path fill="#222222" d="M220.746,42.609c7.125,3.701,12.65,8.924,16.566,15.67c3.918,6.748,5.877,14.583,5.877,23.504
			c0,8.814-1.959,16.624-5.877,23.423c-3.916,6.802-9.441,12.078-16.566,15.832c-7.129,3.754-15.318,5.631-24.564,5.631
			c-9.361,0-17.604-1.877-24.729-5.631c-7.129-3.754-12.65-9.03-16.568-15.832c-3.916-6.799-5.875-14.609-5.875-23.423
			c0-8.921,1.959-16.756,5.875-23.504c3.918-6.746,9.439-11.969,16.568-15.67c7.125-3.698,15.367-5.549,24.729-5.549
			C205.428,37.06,213.617,38.912,220.746,42.609z M180.266,64.645c-4.08,4.463-6.119,10.283-6.119,17.465
			c0,7.182,2.039,13.004,6.119,17.465c4.082,4.463,9.387,6.692,15.916,6.692c6.418,0,11.67-2.229,15.75-6.692
			c4.08-4.46,6.121-10.283,6.121-17.465c0-7.182-2.041-13.002-6.121-17.465c-4.08-4.461-9.332-6.692-15.75-6.692
			C189.652,57.953,184.348,60.184,180.266,64.645z"/>
		<path fill="#222222" d="M338.756,46.037c5.82,6.096,8.732,14.257,8.732,24.484v55.169h-25.137V77.866
			c0-5.549-1.551-9.928-4.652-13.139c-3.102-3.208-7.318-4.815-12.65-4.815c-6.201,0.11-11.098,2.26-14.689,6.448
			c-3.59,4.19-5.387,9.548-5.387,16.077v43.254h-25.137V37.876h25.137v15.343c6.094-10.663,16.213-16.103,30.359-16.322
			C325.127,36.897,332.934,39.944,338.756,46.037z"/>
		<path fill="#222222" d="M423.551,120.794c-3.264,1.957-6.883,3.455-10.854,4.488c-3.975,1.033-7.973,1.551-11.998,1.551
			c-8.16,0-14.799-2.34-19.914-7.02c-5.115-4.677-7.67-11.368-7.67-20.076V59.095h-12.242V41.793h12.242V17.636h24.973v24.157h23.83
			v17.465h-23.83v36.236c0,6.748,2.664,10.12,7.998,10.12c3.697,0,7.779-1.087,12.242-3.265L423.551,120.794z"/>
		<path fill="#222222" d="M475.781,41.304c4.896-2.828,10.609-4.297,17.139-4.407v23.667c-0.873-0.107-2.178-0.164-3.918-0.164
			c-7.727,0-13.848,2.097-18.363,6.284c-4.516,4.19-6.773,9.768-6.773,16.73v42.275h-25.137V37.876h25.137v15.833
			C466.91,48.269,470.885,44.135,475.781,41.304z"/>
		<path fill="#222222" d="M570.855,42.609c7.127,3.701,12.65,8.924,16.568,15.67c3.918,6.748,5.875,14.583,5.875,23.504
			c0,8.814-1.957,16.624-5.875,23.423c-3.918,6.802-9.441,12.078-16.568,15.832s-15.316,5.631-24.564,5.631
			c-9.359,0-17.602-1.877-24.729-5.631c-7.129-3.754-12.65-9.03-16.566-15.832c-3.918-6.799-5.877-14.609-5.877-23.423
			c0-8.921,1.959-16.756,5.877-23.504c3.916-6.746,9.438-11.969,16.566-15.67c7.127-3.698,15.369-5.549,24.729-5.549
			C555.539,37.06,563.729,38.912,570.855,42.609z M530.377,64.645c-4.08,4.463-6.121,10.283-6.121,17.465
			c0,7.182,2.041,13.004,6.121,17.465c4.08,4.463,9.385,6.692,15.914,6.692c6.42,0,11.67-2.229,15.752-6.692
			c4.08-4.46,6.121-10.283,6.121-17.465c0-7.182-2.041-13.002-6.121-17.465c-4.082-4.461-9.332-6.692-15.752-6.692
			C539.762,57.953,534.457,60.184,530.377,64.645z"/>
	</g>
	<g>
		<path fill="#4D4E4E" d="M45.889,219.438c-0.438,6.057-2.675,10.826-6.708,14.305c-4.034,3.479-9.35,5.219-15.947,5.219
			c-7.217,0-12.893-2.428-17.029-7.287C2.068,226.817,0,220.147,0,211.669v-3.441c0-5.412,0.953-10.18,2.861-14.305
			c1.907-4.123,4.632-7.287,8.176-9.49c3.543-2.203,7.661-3.305,12.352-3.305c6.495,0,11.727,1.738,15.696,5.219
			c3.968,3.479,6.262,8.363,6.881,14.652H34.368c-0.284-3.635-1.295-6.27-3.035-7.906s-4.388-2.455-7.944-2.455
			c-3.866,0-6.759,1.385-8.679,4.156c-1.92,2.77-2.906,7.068-2.958,12.893v4.252c0,6.084,0.921,10.529,2.764,13.338
			c1.842,2.811,4.749,4.215,8.718,4.215c3.582,0,6.256-0.818,8.022-2.455c1.765-1.637,2.777-4.17,3.035-7.598H45.889z"/>
		<path fill="#4D4E4E" d="M51.031,216.888c0-4.148,0.798-7.848,2.396-11.096c1.598-3.248,3.898-5.76,6.901-7.539
			c3.002-1.777,6.487-2.666,10.457-2.666c5.645,0,10.251,1.727,13.82,5.18s5.561,8.145,5.974,14.072l0.077,2.861
			c0,6.416-1.792,11.564-5.374,15.443s-8.389,5.818-14.42,5.818s-10.844-1.934-14.439-5.799c-3.595-3.865-5.393-9.123-5.393-15.773
			V216.888z M62.204,217.681c0,3.975,0.747,7.016,2.242,9.119c1.494,2.104,3.634,3.154,6.417,3.154c2.706,0,4.819-1.039,6.34-3.117
			s2.281-5.4,2.281-9.969c0-3.898-0.761-6.918-2.281-9.061s-3.659-3.213-6.417-3.213c-2.732,0-4.846,1.064-6.34,3.193
			C62.951,209.917,62.204,213.216,62.204,217.681z"/>
		<path fill="#4D4E4E" d="M107.82,196.358l0.35,4.834c2.988-3.736,6.996-5.605,12.021-5.605c4.434,0,7.732,1.301,9.898,3.904
			c2.164,2.604,3.271,6.494,3.324,11.674v27.023h-11.172v-26.752c0-2.371-0.518-4.092-1.547-5.16
			c-1.031-1.07-2.746-1.605-5.143-1.605c-3.145,0-5.502,1.34-7.074,4.021v29.496H97.306v-41.83H107.82z"/>
		<path fill="#4D4E4E" d="M164.535,226.63c0-1.365-0.676-2.441-2.029-3.229c-1.354-0.785-3.525-1.488-6.514-2.107
			c-9.949-2.086-14.924-6.313-14.924-12.68c0-3.711,1.541-6.811,4.621-9.297c3.078-2.488,7.105-3.73,12.08-3.73
			c5.309,0,9.555,1.25,12.738,3.75s4.775,5.746,4.775,9.742h-11.174c0-1.598-0.516-2.92-1.547-3.963
			c-1.029-1.045-2.641-1.566-4.832-1.566c-1.881,0-3.338,0.426-4.367,1.275c-1.031,0.852-1.547,1.934-1.547,3.248
			c0,1.236,0.586,2.236,1.758,2.996c1.174,0.76,3.152,1.418,5.936,1.971c2.783,0.555,5.129,1.18,7.035,1.875
			c5.902,2.166,8.854,5.916,8.854,11.25c0,3.814-1.637,6.902-4.91,9.26s-7.5,3.537-12.68,3.537c-3.506,0-6.617-0.625-9.336-1.875
			c-2.721-1.25-4.852-2.963-6.398-5.141s-2.32-4.529-2.32-7.057h10.594c0.102,1.986,0.836,3.506,2.203,4.563
			c1.365,1.057,3.195,1.584,5.49,1.584c2.139,0,3.756-0.404,4.852-1.217C163.986,229.007,164.535,227.944,164.535,226.63z"/>
		<path fill="#4D4E4E" d="M195.965,186.075v10.283h7.152v8.197h-7.152v20.875c0,1.547,0.297,2.656,0.889,3.326
			c0.594,0.67,1.727,1.004,3.402,1.004c1.236,0,2.332-0.09,3.287-0.27v8.465c-2.191,0.67-4.447,1.006-6.766,1.006
			c-7.836,0-11.83-3.955-11.984-11.869v-22.537h-6.109v-8.197h6.109v-10.283H195.965z"/>
		<path fill="#4D4E4E" d="M232.846,206.837c-1.52-0.207-2.859-0.311-4.02-0.311c-4.227,0-6.998,1.432-8.313,4.291v27.371h-11.172
			v-41.83h10.555l0.309,4.988c2.242-3.84,5.348-5.76,9.316-5.76c1.238,0,2.396,0.168,3.48,0.502L232.846,206.837z"/>
		<path fill="#4D4E4E" d="M263.271,233.937c-2.758,3.352-6.572,5.025-11.443,5.025c-4.484,0-7.906-1.289-10.264-3.865
			c-2.357-2.578-3.563-6.354-3.615-11.328v-27.41h11.174v27.055c0,4.361,1.984,6.541,5.953,6.541c3.789,0,6.391-1.314,7.809-3.947
			v-29.648h11.211v41.83h-10.514L263.271,233.937z"/>
		<path fill="#4D4E4E" d="M299.922,229.954c2.061,0,3.736-0.566,5.025-1.701c1.287-1.133,1.957-2.641,2.01-4.523h10.477
			c-0.025,2.836-0.799,5.432-2.32,7.791c-1.52,2.357-3.602,4.188-6.242,5.49c-2.643,1.301-5.561,1.951-8.758,1.951
			c-5.979,0-10.695-1.9-14.148-5.701c-3.453-3.803-5.18-9.053-5.18-15.754v-0.734c0-6.443,1.713-11.586,5.141-15.426
			s8.131-5.76,14.111-5.76c5.232,0,9.426,1.488,12.584,4.465c3.156,2.977,4.76,6.939,4.813,11.887h-10.477
			c-0.053-2.176-0.723-3.943-2.01-5.305c-1.289-1.359-2.99-2.039-5.104-2.039c-2.604,0-4.568,0.947-5.896,2.846
			c-1.326,1.896-1.99,4.975-1.99,9.232v1.162c0,4.311,0.658,7.408,1.971,9.293C295.242,229.013,297.24,229.954,299.922,229.954z"/>
		<path fill="#4D4E4E" d="M337.188,186.075v10.283h7.152v8.197h-7.152v20.875c0,1.547,0.297,2.656,0.891,3.326
			c0.592,0.67,1.727,1.004,3.402,1.004c1.236,0,2.332-0.09,3.285-0.27v8.465c-2.191,0.67-4.445,1.006-6.766,1.006
			c-7.834,0-11.83-3.955-11.984-11.869v-22.537h-6.107v-8.197h6.107v-10.283H337.188z"/>
		<path fill="#4D4E4E" d="M350.488,185.534c0-1.674,0.561-3.053,1.682-4.137c1.121-1.082,2.648-1.623,4.58-1.623
			c1.908,0,3.428,0.541,4.563,1.623c1.135,1.084,1.701,2.463,1.701,4.137c0,1.701-0.574,3.094-1.721,4.176s-2.662,1.623-4.543,1.623
			s-3.395-0.541-4.541-1.623C351.061,188.628,350.488,187.235,350.488,185.534z M362.355,238.188h-11.211v-41.83h11.211V238.188z"/>
		<path fill="#4D4E4E" d="M369.818,216.888c0-4.148,0.797-7.848,2.396-11.096c1.598-3.248,3.898-5.76,6.9-7.539
			c3.002-1.777,6.488-2.666,10.457-2.666c5.645,0,10.252,1.727,13.82,5.18c3.57,3.453,5.561,8.145,5.975,14.072l0.076,2.861
			c0,6.416-1.791,11.564-5.373,15.443s-8.389,5.818-14.42,5.818s-10.844-1.934-14.439-5.799s-5.393-9.123-5.393-15.773V216.888z
			 M380.99,217.681c0,3.975,0.748,7.016,2.242,9.119s3.635,3.154,6.418,3.154c2.705,0,4.818-1.039,6.34-3.117
			c1.52-2.078,2.281-5.4,2.281-9.969c0-3.898-0.762-6.918-2.281-9.061c-1.521-2.143-3.66-3.213-6.418-3.213
			c-2.732,0-4.846,1.064-6.34,3.193S380.99,213.216,380.99,217.681z"/>
		<path fill="#4D4E4E" d="M426.607,196.358l0.35,4.834c2.988-3.736,6.996-5.605,12.021-5.605c4.434,0,7.732,1.301,9.898,3.904
			c2.164,2.604,3.271,6.494,3.324,11.674v27.023h-11.172v-26.752c0-2.371-0.518-4.092-1.547-5.16
			c-1.031-1.07-2.746-1.605-5.143-1.605c-3.145,0-5.502,1.34-7.074,4.021v29.496h-11.172v-41.83H426.607z"/>
		<path fill="#4D4E4E" d="M525.307,219.438c-0.439,6.057-2.676,10.826-6.709,14.305s-9.35,5.219-15.945,5.219
			c-7.217,0-12.895-2.428-17.031-7.287c-4.137-4.857-6.203-11.527-6.203-20.006v-3.441c0-5.412,0.953-10.18,2.859-14.305
			c1.908-4.123,4.633-7.287,8.178-9.49c3.543-2.203,7.66-3.305,12.352-3.305c6.494,0,11.727,1.738,15.695,5.219
			c3.969,3.479,6.262,8.363,6.881,14.652h-11.598c-0.283-3.635-1.295-6.27-3.035-7.906c-1.738-1.637-4.387-2.455-7.943-2.455
			c-3.867,0-6.76,1.385-8.68,4.156c-1.92,2.77-2.906,7.068-2.957,12.893v4.252c0,6.084,0.92,10.529,2.764,13.338
			c1.842,2.811,4.748,4.215,8.719,4.215c3.582,0,6.256-0.818,8.021-2.455c1.764-1.637,2.775-4.17,3.035-7.598H525.307z"/>
		<path fill="#4D4E4E" d="M530.447,216.888c0-4.148,0.799-7.848,2.396-11.096s3.898-5.76,6.902-7.539
			c3.002-1.777,6.486-2.666,10.457-2.666c5.645,0,10.25,1.727,13.82,5.18c3.568,3.453,5.561,8.145,5.973,14.072l0.078,2.861
			c0,6.416-1.793,11.564-5.375,15.443s-8.389,5.818-14.42,5.818s-10.844-1.934-14.439-5.799c-3.594-3.865-5.393-9.123-5.393-15.773
			V216.888z M541.621,217.681c0,3.975,0.746,7.016,2.242,9.119c1.494,2.104,3.633,3.154,6.416,3.154c2.707,0,4.82-1.039,6.34-3.117
			c1.521-2.078,2.281-5.4,2.281-9.969c0-3.898-0.76-6.918-2.281-9.061c-1.52-2.143-3.658-3.213-6.416-3.213
			c-2.732,0-4.846,1.064-6.34,3.193C542.367,209.917,541.621,213.216,541.621,217.681z"/>
		<path fill="#4D4E4E" d="M577.535,232.7c0-1.779,0.6-3.223,1.797-4.33c1.199-1.109,2.699-1.662,4.504-1.662
			c1.83,0,3.344,0.553,4.543,1.662c1.197,1.107,1.797,2.551,1.797,4.33c0,1.752-0.592,3.176-1.777,4.271s-2.707,1.643-4.563,1.643
			c-1.83,0-3.338-0.547-4.523-1.643S577.535,234.452,577.535,232.7z"/>
	</g>
</g>
</svg>
